<svg width="40" height="40" viewBox="0 0 40 40" fill="none" xmlns="http://www.w3.org/2000/svg">
<path fill-rule="evenodd" clip-rule="evenodd" d="M23.8383 7.56685C25.26 7.40227 26.7011 7.54246 28.0625 7.97777C33.2404 9.62537 36.1539 15.0644 34.5674 20.1648C33.896 24.1203 24.132 31.784 20.5921 33.1398C20.4315 33.1981 20.2603 33.2226 20.0894 33.2118C19.9186 33.2011 19.752 33.1552 19.6002 33.0773C-5.97184 21.3253 7.29226 2.7875 19.8267 8.93116C21.0481 8.19686 22.4166 7.73143 23.8383 7.56685ZM12.3908 10.5123C2.96051 14.9003 8.69999 23.8898 15.0116 27.5744C15.9478 28.2165 16.8073 28.7506 17.5476 29.1843C14.9771 22.5887 13.2198 15.3236 17.7078 10.6243C16.009 9.94872 14.1174 9.90887 12.3908 10.5123ZM17.8813 15.0371C23.3731 1.89272 45.9563 16.7524 20.7338 30.251C19.0016 26.4205 16.4815 20.0984 17.8813 15.0371ZM22.6329 21.3318C28.6677 24.5111 32.9372 15.1738 26.4481 12.8724C21.1099 11.2092 17.7979 18.5472 22.6329 21.3318ZM22.8646 16.6221C21.9707 19.3729 26.2243 20.7249 27.1354 17.9806H27.1315C28.0373 15.2311 23.7585 13.8714 22.8646 16.6221Z" fill="#101828"/>
</svg>
