<svg width="176" height="48" viewBox="0 0 176 48" fill="none" xmlns="http://www.w3.org/2000/svg">
<path d="M63.6211 27.6978C64.0236 27.6978 64.3457 27.8543 64.5873 28.1674C64.8489 28.4804 64.9798 28.8815 64.9798 29.3706C64.9798 29.7033 64.8791 30.0163 64.6778 30.3098C64.4765 30.5837 64.1947 30.8185 63.8324 31.0141C63.148 31.3663 62.3529 31.6598 61.4471 31.8946C60.5413 32.1098 59.7059 32.2174 58.941 32.2174C57.3307 32.2174 55.9216 31.9141 54.7138 31.3076C53.5262 30.7011 52.6103 29.8402 51.9662 28.725C51.3221 27.5902 51 26.2598 51 24.7337C51 23.2663 51.312 21.9652 51.936 20.8304C52.56 19.6957 53.4256 18.8152 54.5327 18.1891C55.6398 17.5435 56.8979 17.2207 58.3069 17.2207C59.6556 17.2207 60.8331 17.5141 61.8396 18.1011C62.8662 18.6685 63.6613 19.4902 64.2249 20.5663C64.7886 21.6228 65.0704 22.8652 65.0704 24.2935C65.0704 24.7239 64.9596 25.0565 64.7382 25.2913C64.5369 25.5065 64.2451 25.6141 63.8626 25.6141H55.4083C55.5492 26.7685 55.9115 27.6098 56.4953 28.138C57.079 28.6467 57.9144 28.9011 59.0014 28.9011C59.5851 28.9011 60.1085 28.8326 60.5715 28.6957C61.0344 28.5587 61.5477 28.3728 62.1114 28.138C62.3932 28.0207 62.6649 27.9228 62.9266 27.8446C63.1883 27.7467 63.4198 27.6978 63.6211 27.6978ZM58.4277 20.2728C57.5621 20.2728 56.8677 20.5467 56.3443 21.0946C55.821 21.6228 55.509 22.3956 55.4083 23.413H61.2357C61.1753 22.3761 60.9036 21.5935 60.4205 21.0652C59.9575 20.537 59.2933 20.2728 58.4277 20.2728Z" fill="#101828"/>
<path d="M76.0671 17.2793C76.671 17.2402 77.144 17.3772 77.4862 17.6902C77.8485 17.9837 78.0297 18.4337 78.0297 19.0402C78.0297 19.6859 77.8686 20.1652 77.5466 20.4783C77.2245 20.7913 76.6508 20.987 75.8255 21.0652L74.9197 21.1533C73.8126 21.2707 73.0074 21.6228 72.5042 22.2098C72.0211 22.7967 71.7795 23.55 71.7795 24.4696V30.075C71.7795 30.7598 71.5581 31.2783 71.1153 31.6304C70.6926 31.9826 70.1591 32.1587 69.515 32.1587C68.8507 32.1587 68.2972 31.9826 67.8543 31.6304C67.4316 31.2783 67.2203 30.7598 67.2203 30.075V19.3043C67.2203 18.6587 67.4417 18.1598 67.8845 17.8076C68.3274 17.4554 68.8608 17.2793 69.4848 17.2793C70.0887 17.2793 70.5919 17.4554 70.9945 17.8076C71.3971 18.1402 71.5984 18.6098 71.5984 19.2163V20.0087C71.9607 19.1674 72.5042 18.5217 73.2288 18.0717C73.9736 17.6217 74.7788 17.3674 75.6444 17.3087L76.0671 17.2793Z" fill="#101828"/>
<path d="M85.5661 32.2174C83.996 32.2174 82.6172 31.9141 81.4296 31.3076C80.2419 30.6815 79.326 29.8109 78.6819 28.6957C78.0378 27.5609 77.7157 26.2304 77.7157 24.7043C77.7157 23.1783 78.0378 21.8576 78.6819 20.7424C79.326 19.6076 80.2419 18.737 81.4296 18.1304C82.6172 17.5239 83.996 17.2207 85.5661 17.2207C87.1362 17.2207 88.5151 17.5239 89.7027 18.1304C90.8903 18.737 91.8062 19.6076 92.4503 20.7424C93.0945 21.8576 93.4165 23.1783 93.4165 24.7043C93.4165 26.2304 93.0945 27.5609 92.4503 28.6957C91.8062 29.8109 90.8903 30.6815 89.7027 31.3076C88.5151 31.9141 87.1362 32.2174 85.5661 32.2174ZM85.5661 28.8424C87.7803 28.8424 88.8875 27.463 88.8875 24.7043C88.8875 23.3152 88.5956 22.2783 88.0118 21.5935C87.4482 20.9087 86.633 20.5663 85.5661 20.5663C83.3519 20.5663 82.2448 21.9457 82.2448 24.7043C82.2448 27.463 83.3519 28.8424 85.5661 28.8424Z" fill="#101828"/>
<path d="M108.45 17.2793C109.134 17.2793 109.678 17.475 110.08 17.8663C110.503 18.238 110.714 18.737 110.714 19.363V30.4272C110.714 32.7554 110.02 34.5163 108.631 35.7098C107.242 36.9033 105.209 37.5 102.532 37.5C100.277 37.5 98.4254 37.1087 96.9761 36.3261C96.6138 36.1304 96.332 35.8859 96.1307 35.5924C95.9294 35.3185 95.8288 35.0054 95.8288 34.6533C95.8288 34.1641 95.9495 33.763 96.1911 33.45C96.4326 33.137 96.7547 32.9804 97.1573 32.9804C97.3787 32.9804 97.6404 33.0196 97.9423 33.0978C98.2443 33.1957 98.5563 33.3033 98.8783 33.4206C99.5225 33.6554 100.116 33.8413 100.66 33.9783C101.203 34.1152 101.787 34.1837 102.411 34.1837C103.699 34.1837 104.655 33.9 105.279 33.3326C105.903 32.7652 106.215 31.9043 106.215 30.75V29.1652C105.793 29.9087 105.159 30.4957 104.313 30.9261C103.468 31.3565 102.522 31.5717 101.475 31.5717C100.187 31.5717 99.0394 31.2783 98.0329 30.6913C97.0466 30.1043 96.2716 29.2728 95.708 28.1967C95.1444 27.1011 94.8625 25.8391 94.8625 24.4109C94.8625 22.9826 95.1444 21.7304 95.708 20.6543C96.2716 19.5587 97.0466 18.7174 98.0329 18.1304C99.0394 17.5239 100.187 17.2207 101.475 17.2207C102.502 17.2207 103.428 17.4359 104.253 17.8663C105.098 18.2772 105.742 18.8543 106.185 19.5978V19.3043C106.185 18.6783 106.387 18.1891 106.789 17.837C107.212 17.4652 107.765 17.2793 108.45 17.2793ZM102.804 28.1967C103.87 28.1967 104.696 27.8641 105.279 27.1989C105.883 26.5337 106.185 25.6043 106.185 24.4109C106.185 23.2174 105.883 22.288 105.279 21.6228C104.696 20.938 103.87 20.5957 102.804 20.5957C101.737 20.5957 100.901 20.938 100.297 21.6228C99.6936 22.288 99.3916 23.2174 99.3916 24.4109C99.3916 25.6043 99.6936 26.5337 100.297 27.1989C100.901 27.8641 101.737 28.1967 102.804 28.1967Z" fill="#101828"/>
<path d="M125.606 17.2793C126.31 17.2793 126.864 17.4652 127.266 17.837C127.689 18.2087 127.9 18.7174 127.9 19.363V30.1337C127.9 30.7402 127.679 31.2293 127.236 31.6011C126.813 31.9728 126.26 32.1587 125.575 32.1587C124.931 32.1587 124.418 31.9826 124.036 31.6304C123.653 31.2783 123.462 30.8087 123.462 30.2217V29.9283C122.999 30.6717 122.385 31.2391 121.62 31.6304C120.875 32.0217 120.03 32.2174 119.084 32.2174C117.212 32.2174 115.813 31.7185 114.887 30.7206C113.981 29.7033 113.528 28.1772 113.528 26.1424V19.363C113.528 18.7174 113.729 18.2087 114.132 17.837C114.555 17.4652 115.118 17.2793 115.823 17.2793C116.527 17.2793 117.081 17.4652 117.483 17.837C117.886 18.2087 118.087 18.7174 118.087 19.363V26.2304C118.087 27.0913 118.268 27.7272 118.631 28.138C119.013 28.5489 119.587 28.7543 120.352 28.7543C121.238 28.7543 121.952 28.4609 122.496 27.8739C123.059 27.287 123.341 26.5141 123.341 25.5554V19.363C123.341 18.7174 123.542 18.2087 123.945 17.837C124.348 17.4652 124.901 17.2793 125.606 17.2793Z" fill="#101828"/>
<path d="M133.09 32.1587C132.425 32.1587 131.872 31.9826 131.429 31.6304C131.006 31.2783 130.795 30.7598 130.795 30.075V19.363C130.795 18.6783 131.016 18.1598 131.459 17.8076C131.902 17.4554 132.446 17.2793 133.09 17.2793C133.734 17.2793 134.267 17.4554 134.69 17.8076C135.133 18.1598 135.354 18.6783 135.354 19.363V30.075C135.354 30.7598 135.133 31.2783 134.69 31.6304C134.267 31.9826 133.734 32.1587 133.09 32.1587ZM133.09 14.9315C132.285 14.9315 131.65 14.7359 131.187 14.3446C130.725 13.9337 130.493 13.3859 130.493 12.7011C130.493 12.0163 130.725 11.4783 131.187 11.087C131.65 10.6957 132.285 10.5 133.09 10.5C133.875 10.5 134.499 10.7054 134.962 11.1163C135.445 11.5076 135.686 12.0359 135.686 12.7011C135.686 13.3859 135.455 13.9337 134.992 14.3446C134.529 14.7359 133.895 14.9315 133.09 14.9315Z" fill="#101828"/>
<path d="M150.892 11.1457C151.597 11.1457 152.16 11.3315 152.583 11.7033C153.026 12.075 153.247 12.5641 153.247 13.1707V30.075C153.247 30.7011 153.036 31.2098 152.613 31.6011C152.211 31.9728 151.667 32.1587 150.983 32.1587C150.298 32.1587 149.745 31.9728 149.322 31.6011C148.919 31.2098 148.718 30.7011 148.718 30.075V29.8402C148.275 30.5837 147.641 31.1706 146.816 31.6011C146.011 32.012 145.095 32.2174 144.068 32.2174C142.8 32.2174 141.663 31.9043 140.656 31.2783C139.67 30.6326 138.895 29.7424 138.331 28.6076C137.788 27.4533 137.516 26.1326 137.516 24.6457C137.516 23.1587 137.788 21.8576 138.331 20.7424C138.895 19.6076 139.67 18.737 140.656 18.1304C141.643 17.5239 142.78 17.2207 144.068 17.2207C145.075 17.2207 145.981 17.4261 146.786 17.837C147.611 18.2478 148.245 18.825 148.688 19.5685V13.0826C148.688 12.4957 148.889 12.0261 149.292 11.6739C149.694 11.3217 150.228 11.1457 150.892 11.1457ZM145.397 28.8424C146.464 28.8424 147.279 28.4902 147.842 27.7859C148.426 27.062 148.718 26.0348 148.718 24.7043C148.718 23.3739 148.426 22.3565 147.842 21.6522C147.279 20.9478 146.464 20.5957 145.397 20.5957C144.33 20.5957 143.505 20.9478 142.921 21.6522C142.337 22.337 142.045 23.3348 142.045 24.6457C142.045 25.9761 142.337 27.013 142.921 27.7565C143.505 28.4804 144.33 28.8424 145.397 28.8424Z" fill="#101828"/>
<path d="M168.051 27.6978C168.453 27.6978 168.775 27.8543 169.017 28.1674C169.279 28.4804 169.409 28.8815 169.409 29.3706C169.409 29.7033 169.309 30.0163 169.107 30.3098C168.906 30.5837 168.624 30.8185 168.262 31.0141C167.578 31.3663 166.783 31.6598 165.877 31.8946C164.971 32.1098 164.136 32.2174 163.371 32.2174C161.76 32.2174 160.351 31.9141 159.143 31.3076C157.956 30.7011 157.04 29.8402 156.396 28.725C155.752 27.5902 155.43 26.2598 155.43 24.7337C155.43 23.2663 155.742 21.9652 156.366 20.8304C156.99 19.6957 157.855 18.8152 158.962 18.1891C160.069 17.5435 161.328 17.2207 162.737 17.2207C164.085 17.2207 165.263 17.5141 166.269 18.1011C167.296 18.6685 168.091 19.4902 168.655 20.5663C169.218 21.6228 169.5 22.8652 169.5 24.2935C169.5 24.7239 169.389 25.0565 169.168 25.2913C168.967 25.5065 168.675 25.6141 168.292 25.6141H159.838C159.979 26.7685 160.341 27.6098 160.925 28.138C161.509 28.6467 162.344 28.9011 163.431 28.9011C164.015 28.9011 164.538 28.8326 165.001 28.6957C165.464 28.5587 165.977 28.3728 166.541 28.138C166.823 28.0207 167.095 27.9228 167.356 27.8446C167.618 27.7467 167.849 27.6978 168.051 27.6978ZM162.857 20.2728C161.992 20.2728 161.297 20.5467 160.774 21.0946C160.251 21.6228 159.939 22.3956 159.838 23.413H165.665C165.605 22.3761 165.333 21.5935 164.85 21.0652C164.387 20.537 163.723 20.2728 162.857 20.2728Z" fill="#101828"/>
<path fill-rule="evenodd" clip-rule="evenodd" d="M28.606 9.08022C30.312 8.88272 32.0413 9.05095 33.6749 9.57332C39.8885 11.5504 43.3846 18.0773 41.4808 24.1978C40.6751 28.9444 28.9583 38.1408 24.7105 39.7678C24.5178 39.8377 24.3123 39.8671 24.1073 39.8542C23.9023 39.8413 23.7024 39.7863 23.5203 39.6928C-7.16621 25.5903 8.75072 3.345 23.792 10.7174C25.2577 9.83624 26.9 9.27771 28.606 9.08022ZM14.8689 12.6148C3.55261 17.8804 10.44 28.6678 18.0139 33.0893C19.1374 33.8599 20.1688 34.5007 21.0571 35.0211C17.9726 27.1064 15.8638 18.3883 21.2494 12.7492C19.2109 11.9385 16.9409 11.8906 14.8689 12.6148ZM21.4576 18.0445C28.0478 2.27126 55.1475 20.1029 24.8806 36.3012C22.802 31.7046 19.7778 24.118 21.4576 18.0445ZM27.1594 25.5982C34.4012 29.4133 39.5246 18.2086 31.7378 15.4469C25.3319 13.451 21.3574 22.2566 27.1594 25.5982ZM27.4375 19.9466C26.3649 23.2475 31.4692 24.8698 32.5625 21.5767H32.5578C33.6447 18.2773 28.5102 16.6456 27.4375 19.9466Z" fill="url(#paint0_linear_28087_184440)"/>
<defs>
<linearGradient id="paint0_linear_28087_184440" x1="3.75" y1="39.75" x2="47.25" y2="5.25" gradientUnits="userSpaceOnUse">
<stop stop-color="#CD0D59"/>
<stop offset="1" stop-color="#C00C53"/>
</linearGradient>
</defs>
</svg>
