<svg width="147" height="40" viewBox="0 0 147 40" fill="none" xmlns="http://www.w3.org/2000/svg">
<path fill-rule="evenodd" clip-rule="evenodd" d="M23.8383 7.56685C25.26 7.40227 26.7011 7.54246 28.0625 7.97777C33.2404 9.62537 36.1539 15.0644 34.5674 20.1648C33.896 24.1203 24.132 31.784 20.5921 33.1398C20.4315 33.1981 20.2603 33.2226 20.0894 33.2118C19.9186 33.201 19.752 33.1552 19.6002 33.0773C-5.97184 21.3253 7.29226 2.7875 19.8267 8.93116C21.0481 8.19686 22.4166 7.73143 23.8383 7.56685ZM12.3908 10.5123C2.96051 14.9003 8.69999 23.8898 15.0116 27.5744C15.9478 28.2165 16.8073 28.7506 17.5476 29.1843C14.9771 22.5887 13.2198 15.3236 17.7078 10.6243C16.009 9.94872 14.1174 9.90887 12.3908 10.5123ZM17.8813 15.0371C23.3731 1.89272 45.9563 16.7524 20.7338 30.251C19.0016 26.4205 16.4815 20.0984 17.8813 15.0371ZM22.6329 21.3318C28.6677 24.5111 32.9372 15.1738 26.4481 12.8724C21.1099 11.2092 17.7979 18.5472 22.6329 21.3318ZM22.8646 16.6221C21.9707 19.3729 26.2243 20.7249 27.1355 17.9806H27.1315C28.0373 15.2311 23.7585 13.8714 22.8646 16.6221Z" fill="#101828"/>
<path d="M53.0175 23.0815C53.353 23.0815 53.6214 23.212 53.8227 23.4728C54.0408 23.7337 54.1498 24.0679 54.1498 24.4755C54.1498 24.7527 54.0659 25.0136 53.8982 25.2582C53.7305 25.4864 53.4956 25.6821 53.1937 25.8451C52.6233 26.1386 51.9608 26.3832 51.2059 26.5788C50.4511 26.7582 49.7549 26.8478 49.1175 26.8478C47.7755 26.8478 46.6013 26.5951 45.5949 26.0897C44.6052 25.5842 43.8419 24.8668 43.3052 23.9375C42.7684 22.9918 42.5 21.8832 42.5 20.6114C42.5 19.3886 42.76 18.3043 43.28 17.3587C43.8 16.413 44.5213 15.6793 45.4439 15.1576C46.3665 14.6196 47.4149 14.3505 48.5891 14.3505C49.713 14.3505 50.6943 14.5951 51.533 15.0842C52.3885 15.5571 53.0511 16.2418 53.5208 17.1386C53.9905 18.019 54.2253 19.0543 54.2253 20.2446C54.2253 20.6033 54.133 20.8804 53.9485 21.0761C53.7808 21.2554 53.5376 21.3451 53.2188 21.3451H46.1736C46.291 22.3071 46.593 23.0082 47.0794 23.4484C47.5659 23.8723 48.262 24.0842 49.1678 24.0842C49.6543 24.0842 50.0904 24.0272 50.4762 23.913C50.862 23.7989 51.2898 23.644 51.7595 23.4484C51.9943 23.3505 52.2208 23.269 52.4388 23.2038C52.6569 23.1223 52.8498 23.0815 53.0175 23.0815ZM48.6898 16.894C47.9685 16.894 47.3897 17.1223 46.9536 17.5788C46.5175 18.019 46.2575 18.663 46.1736 19.5109H51.0298C50.9795 18.6467 50.753 17.9946 50.3504 17.5543C49.9646 17.1141 49.411 16.894 48.6898 16.894Z" fill="#101828"/>
<path d="M63.3892 14.3995C63.8925 14.3668 64.2867 14.481 64.5718 14.7418C64.8738 14.9864 65.0247 15.3614 65.0247 15.8668C65.0247 16.4049 64.8905 16.8043 64.6221 17.0652C64.3538 17.3261 63.8757 17.4891 63.1879 17.5543L62.4331 17.6277C61.5105 17.7255 60.8395 18.019 60.4202 18.5082C60.0176 18.9973 59.8163 19.625 59.8163 20.3913V25.0625C59.8163 25.6332 59.6318 26.0652 59.2627 26.3587C58.9105 26.6522 58.4659 26.7989 57.9292 26.7989C57.3756 26.7989 56.9143 26.6522 56.5453 26.3587C56.193 26.0652 56.0169 25.6332 56.0169 25.0625V16.087C56.0169 15.5489 56.2014 15.1332 56.5704 14.8397C56.9395 14.5462 57.384 14.3995 57.904 14.3995C58.4072 14.3995 58.8266 14.5462 59.1621 14.8397C59.4976 15.1168 59.6653 15.5082 59.6653 16.0136V16.6739C59.9673 15.9728 60.4202 15.4348 61.024 15.0598C61.6447 14.6848 62.3157 14.4728 63.037 14.4239L63.3892 14.3995Z" fill="#101828"/>
<path d="M71.3051 26.8478C69.9967 26.8478 68.8477 26.5951 67.858 26.0897C66.8683 25.5679 66.105 24.8424 65.5683 23.913C65.0315 22.9674 64.7631 21.8587 64.7631 20.587C64.7631 19.3152 65.0315 18.2147 65.5683 17.2853C66.105 16.3397 66.8683 15.6141 67.858 15.1087C68.8477 14.6033 69.9967 14.3505 71.3051 14.3505C72.6135 14.3505 73.7626 14.6033 74.7522 15.1087C75.7419 15.6141 76.5052 16.3397 77.0419 17.2853C77.5787 18.2147 77.8471 19.3152 77.8471 20.587C77.8471 21.8587 77.5787 22.9674 77.0419 23.913C76.5052 24.8424 75.7419 25.5679 74.7522 26.0897C73.7626 26.5951 72.6135 26.8478 71.3051 26.8478ZM71.3051 24.0353C73.1503 24.0353 74.0729 22.8859 74.0729 20.587C74.0729 19.4293 73.8297 18.5652 73.3432 17.9946C72.8735 17.4239 72.1941 17.1386 71.3051 17.1386C69.4599 17.1386 68.5373 18.288 68.5373 20.587C68.5373 22.8859 69.4599 24.0353 71.3051 24.0353Z" fill="#101828"/>
<path d="M90.3748 14.3995C90.9452 14.3995 91.3981 14.5625 91.7336 14.8886C92.0858 15.1984 92.262 15.6141 92.262 16.1359V25.356C92.262 27.2962 91.6832 28.7636 90.5258 29.7582C89.3684 30.7527 87.6742 31.25 85.4432 31.25C83.5644 31.25 82.0212 30.9239 80.8134 30.2717C80.5115 30.1087 80.2767 29.9049 80.1089 29.6603C79.9412 29.4321 79.8573 29.1712 79.8573 28.8777C79.8573 28.4701 79.9579 28.1359 80.1592 27.875C80.3605 27.6141 80.6289 27.4837 80.9644 27.4837C81.1489 27.4837 81.367 27.5163 81.6186 27.5815C81.8702 27.663 82.1302 27.7527 82.3986 27.8505C82.9354 28.0462 83.4302 28.2011 83.8831 28.3152C84.3361 28.4293 84.8225 28.4864 85.3425 28.4864C86.4161 28.4864 87.2129 28.25 87.7329 27.7772C88.2529 27.3043 88.5129 26.587 88.5129 25.625V24.3043C88.1606 24.9239 87.6322 25.413 86.9277 25.7717C86.2232 26.1304 85.4348 26.3098 84.5625 26.3098C83.489 26.3098 82.5328 26.0652 81.6941 25.5761C80.8721 25.087 80.2263 24.394 79.7566 23.4973C79.287 22.5842 79.0521 21.5326 79.0521 20.3424C79.0521 19.1522 79.287 18.1087 79.7566 17.212C80.2263 16.2989 80.8721 15.5978 81.6941 15.1087C82.5328 14.6033 83.489 14.3505 84.5625 14.3505C85.418 14.3505 86.1896 14.5299 86.8774 14.8886C87.5819 15.231 88.1187 15.712 88.4877 16.3315V16.087C88.4877 15.5652 88.6555 15.1576 88.991 14.8641C89.3432 14.5543 89.8045 14.3995 90.3748 14.3995ZM85.6696 23.4973C86.5587 23.4973 87.2464 23.2201 87.7329 22.6658C88.2361 22.1114 88.4877 21.337 88.4877 20.3424C88.4877 19.3478 88.2361 18.5734 87.7329 18.019C87.2464 17.4484 86.5587 17.163 85.6696 17.163C84.7806 17.163 84.0844 17.4484 83.5812 18.019C83.078 18.5734 82.8264 19.3478 82.8264 20.3424C82.8264 21.337 83.078 22.1114 83.5812 22.6658C84.0844 23.2201 84.7806 23.4973 85.6696 23.4973Z" fill="#101828"/>
<path d="M104.671 14.3995C105.258 14.3995 105.72 14.5543 106.055 14.8641C106.407 15.1739 106.584 15.5978 106.584 16.1359V25.1114C106.584 25.6168 106.399 26.0245 106.03 26.3342C105.678 26.644 105.217 26.7989 104.646 26.7989C104.109 26.7989 103.682 26.6522 103.363 26.3587C103.044 26.0652 102.885 25.6739 102.885 25.1848V24.9402C102.499 25.5598 101.987 26.0326 101.35 26.3587C100.729 26.6848 100.025 26.8478 99.2364 26.8478C97.6764 26.8478 96.5106 26.4321 95.739 25.6005C94.9841 24.7527 94.6067 23.481 94.6067 21.7853V16.1359C94.6067 15.5978 94.7744 15.1739 95.1099 14.8641C95.4622 14.5543 95.9319 14.3995 96.519 14.3995C97.1061 14.3995 97.5674 14.5543 97.9029 14.8641C98.2384 15.1739 98.4061 15.5978 98.4061 16.1359V21.8587C98.4061 22.5761 98.5571 23.106 98.859 23.4484C99.1777 23.7908 99.6558 23.962 100.293 23.962C101.031 23.962 101.627 23.7174 102.08 23.2283C102.549 22.7391 102.784 22.0951 102.784 21.2962V16.1359C102.784 15.5978 102.952 15.1739 103.287 14.8641C103.623 14.5543 104.084 14.3995 104.671 14.3995Z" fill="#101828"/>
<path d="M110.908 26.7989C110.355 26.7989 109.893 26.6522 109.524 26.3587C109.172 26.0652 108.996 25.6332 108.996 25.0625V16.1359C108.996 15.5652 109.18 15.1332 109.549 14.8397C109.918 14.5462 110.371 14.3995 110.908 14.3995C111.445 14.3995 111.889 14.5462 112.242 14.8397C112.611 15.1332 112.795 15.5652 112.795 16.1359V25.0625C112.795 25.6332 112.611 26.0652 112.242 26.3587C111.889 26.6522 111.445 26.7989 110.908 26.7989ZM110.908 12.4429C110.237 12.4429 109.709 12.2799 109.323 11.9538C108.937 11.6114 108.744 11.1549 108.744 10.5842C108.744 10.0136 108.937 9.56522 109.323 9.23913C109.709 8.91304 110.237 8.75 110.908 8.75C111.562 8.75 112.082 8.9212 112.468 9.26359C112.871 9.58967 113.072 10.0299 113.072 10.5842C113.072 11.1549 112.879 11.6114 112.493 11.9538C112.107 12.2799 111.579 12.4429 110.908 12.4429Z" fill="#101828"/>
<path d="M125.743 9.28804C126.33 9.28804 126.8 9.44293 127.152 9.75272C127.521 10.0625 127.706 10.4701 127.706 10.9755V25.0625C127.706 25.5842 127.53 26.0082 127.178 26.3342C126.842 26.644 126.389 26.7989 125.819 26.7989C125.249 26.7989 124.787 26.644 124.435 26.3342C124.099 26.0082 123.932 25.5842 123.932 25.0625V24.8668C123.563 25.4864 123.034 25.9755 122.347 26.3342C121.676 26.6766 120.912 26.8478 120.057 26.8478C119 26.8478 118.052 26.587 117.214 26.0652C116.392 25.5272 115.746 24.7853 115.276 23.8397C114.823 22.8777 114.597 21.7772 114.597 20.538C114.597 19.2989 114.823 18.2147 115.276 17.2853C115.746 16.3397 116.392 15.6141 117.214 15.1087C118.036 14.6033 118.983 14.3505 120.057 14.3505C120.896 14.3505 121.65 14.5217 122.321 14.8641C123.009 15.2065 123.538 15.6875 123.907 16.3071V10.9022C123.907 10.413 124.074 10.0217 124.41 9.72826C124.745 9.43478 125.19 9.28804 125.743 9.28804ZM121.164 24.0353C122.053 24.0353 122.732 23.7418 123.202 23.1549C123.689 22.5516 123.932 21.6957 123.932 20.587C123.932 19.4783 123.689 18.6304 123.202 18.0435C122.732 17.4565 122.053 17.163 121.164 17.163C120.275 17.163 119.587 17.4565 119.101 18.0435C118.614 18.6141 118.371 19.4457 118.371 20.538C118.371 21.6467 118.614 22.5109 119.101 23.1304C119.587 23.7337 120.275 24.0353 121.164 24.0353Z" fill="#101828"/>
<path d="M140.042 23.0815C140.378 23.0815 140.646 23.212 140.847 23.4728C141.065 23.7337 141.175 24.0679 141.175 24.4755C141.175 24.7527 141.091 25.0136 140.923 25.2582C140.755 25.4864 140.52 25.6821 140.218 25.8451C139.648 26.1386 138.985 26.3832 138.231 26.5788C137.476 26.7582 136.78 26.8478 136.142 26.8478C134.8 26.8478 133.626 26.5951 132.62 26.0897C131.63 25.5842 130.867 24.8668 130.33 23.9375C129.793 22.9918 129.525 21.8832 129.525 20.6114C129.525 19.3886 129.785 18.3043 130.305 17.3587C130.825 16.413 131.546 15.6793 132.469 15.1576C133.391 14.6196 134.44 14.3505 135.614 14.3505C136.738 14.3505 137.719 14.5951 138.558 15.0842C139.413 15.5571 140.076 16.2418 140.545 17.1386C141.015 18.019 141.25 19.0543 141.25 20.2446C141.25 20.6033 141.158 20.8804 140.973 21.0761C140.805 21.2554 140.562 21.3451 140.244 21.3451H133.198C133.316 22.3071 133.618 23.0082 134.104 23.4484C134.591 23.8723 135.287 24.0842 136.193 24.0842C136.679 24.0842 137.115 24.0272 137.501 23.913C137.887 23.7989 138.314 23.644 138.784 23.4484C139.019 23.3505 139.245 23.269 139.464 23.2038C139.682 23.1223 139.874 23.0815 140.042 23.0815ZM135.714 16.894C134.993 16.894 134.414 17.1223 133.978 17.5788C133.542 18.019 133.282 18.663 133.198 19.5109H138.054C138.004 18.6467 137.778 17.9946 137.375 17.5543C136.989 17.1141 136.436 16.894 135.714 16.894Z" fill="#101828"/>
</svg>
