<svg width="32" height="32" viewBox="0 0 32 32" fill="none" xmlns="http://www.w3.org/2000/svg">
<path fill-rule="evenodd" clip-rule="evenodd" d="M19.0707 6.05348C20.208 5.92182 21.3609 6.03396 22.45 6.38221C26.5923 7.70029 28.9231 12.0515 27.6539 16.1318C27.1168 19.2963 19.3056 25.4272 16.4737 26.5119C16.3452 26.5584 16.2082 26.5781 16.0716 26.5695C15.9349 26.5608 15.8016 26.5242 15.6802 26.4618C-4.77747 17.0602 5.83381 2.23 15.8613 7.14493C16.8385 6.55749 17.9333 6.18514 19.0707 6.05348ZM9.91263 8.40987C2.3684 11.9202 6.95999 19.1118 12.0092 22.0596C12.7583 22.5732 13.4458 23.0004 14.0381 23.3474C11.9817 18.0709 10.5758 12.2589 14.1663 8.49948C12.8072 7.95898 11.2939 7.9271 9.91263 8.40987ZM14.305 12.0296C18.6985 1.51417 36.765 13.4019 16.5871 24.2008C15.2013 21.1364 13.1852 16.0787 14.305 12.0296ZM18.1063 17.0654C22.9341 19.6089 26.3497 12.139 21.1585 10.2979C16.8879 8.96732 14.2383 14.8377 18.1063 17.0654ZM18.2917 13.2977C17.5766 15.4983 20.9795 16.5799 21.7084 14.3845H21.7052C22.4298 12.1849 19.0068 11.0971 18.2917 13.2977Z" fill="#101828"/>
</svg>
