<svg width="48" height="48" viewBox="0 0 48 48" fill="none" xmlns="http://www.w3.org/2000/svg">
<path fill-rule="evenodd" clip-rule="evenodd" d="M28.606 9.08022C30.312 8.88272 32.0413 9.05095 33.6749 9.57332C39.8885 11.5504 43.3846 18.0773 41.4808 24.1978C40.6751 28.9444 28.9583 38.1408 24.7105 39.7678C24.5178 39.8377 24.3123 39.8671 24.1073 39.8542C23.9023 39.8413 23.7024 39.7863 23.5203 39.6928C-7.16621 25.5903 8.75072 3.345 23.792 10.7174C25.2577 9.83624 26.9 9.27771 28.606 9.08022ZM14.8689 12.6148C3.55261 17.8804 10.44 28.6678 18.0139 33.0893C19.1374 33.8599 20.1688 34.5007 21.0571 35.0211C17.9726 27.1064 15.8638 18.3883 21.2494 12.7492C19.2109 11.9385 16.9409 11.8906 14.8689 12.6148ZM21.4576 18.0445C28.0478 2.27126 55.1475 20.1029 24.8806 36.3012C22.802 31.7046 19.7778 24.118 21.4576 18.0445ZM27.1594 25.5982C34.4012 29.4133 39.5246 18.2086 31.7378 15.4469C25.3319 13.451 21.3574 22.2566 27.1594 25.5982ZM27.4375 19.9466C26.3649 23.2475 31.4692 24.8698 32.5625 21.5767H32.5578C33.6447 18.2773 28.5102 16.6456 27.4375 19.9466Z" fill="#101828"/>
</svg>
