<svg width="117" height="32" viewBox="0 0 117 32" fill="none" xmlns="http://www.w3.org/2000/svg">
<path d="M42.414 18.4652C42.6824 18.4652 42.8971 18.5696 43.0582 18.7783C43.2326 18.987 43.3199 19.2543 43.3199 19.5804C43.3199 19.8022 43.2528 20.0109 43.1186 20.2065C42.9844 20.3891 42.7965 20.5457 42.5549 20.6761C42.0987 20.9109 41.5686 21.1065 40.9647 21.263C40.3609 21.4065 39.8039 21.4783 39.294 21.4783C38.2204 21.4783 37.2811 21.2761 36.4759 20.8717C35.6841 20.4674 35.0736 19.8935 34.6441 19.15C34.2147 18.3935 34 17.5065 34 16.4891C34 15.5109 34.208 14.6435 34.624 13.887C35.04 13.1304 35.6171 12.5435 36.3551 12.1261C37.0932 11.6957 37.9319 11.4804 38.8713 11.4804C39.7704 11.4804 40.5554 11.6761 41.2264 12.0674C41.9108 12.4457 42.4409 12.9935 42.8166 13.7109C43.1924 14.4152 43.3802 15.2435 43.3802 16.1957C43.3802 16.4826 43.3064 16.7043 43.1588 16.8609C43.0246 17.0043 42.83 17.0761 42.5751 17.0761H36.9389C37.0328 17.8457 37.2744 18.4065 37.6635 18.7587C38.0527 19.0978 38.6096 19.2674 39.3343 19.2674C39.7234 19.2674 40.0723 19.2217 40.381 19.1304C40.6896 19.0391 41.0318 18.9152 41.4076 18.7587C41.5954 18.6804 41.7766 18.6152 41.9511 18.563C42.1255 18.4978 42.2798 18.4652 42.414 18.4652ZM38.9518 13.5152C38.3748 13.5152 37.9118 13.6978 37.5629 14.063C37.214 14.4152 37.006 14.9304 36.9389 15.6087H40.8238C40.7836 14.9174 40.6024 14.3957 40.2803 14.0435C39.9717 13.6913 39.5288 13.5152 38.9518 13.5152Z" fill="#101828"/>
<path d="M50.7114 11.5196C51.114 11.4935 51.4293 11.5848 51.6575 11.7935C51.899 11.9891 52.0198 12.2891 52.0198 12.6935C52.0198 13.1239 51.9124 13.4435 51.6977 13.6522C51.483 13.8609 51.1005 13.9913 50.5504 14.0435L49.9465 14.1022C49.2084 14.1804 48.6716 14.4152 48.3361 14.8065C48.0141 15.1978 47.853 15.7 47.853 16.313V20.05C47.853 20.5065 47.7054 20.8522 47.4102 21.087C47.1284 21.3217 46.7728 21.4391 46.3433 21.4391C45.9005 21.4391 45.5314 21.3217 45.2362 21.087C44.9544 20.8522 44.8135 20.5065 44.8135 20.05V12.8696C44.8135 12.4391 44.9611 12.1065 45.2564 11.8717C45.5516 11.637 45.9072 11.5196 46.3232 11.5196C46.7258 11.5196 47.0613 11.637 47.3297 11.8717C47.5981 12.0935 47.7323 12.4065 47.7323 12.8109V13.3391C47.9738 12.7783 48.3361 12.3478 48.8192 12.0478C49.3158 11.7478 49.8525 11.5783 50.4296 11.5391L50.7114 11.5196Z" fill="#101828"/>
<path d="M57.0441 21.4783C55.9974 21.4783 55.0781 21.2761 54.2864 20.8717C53.4946 20.4543 52.884 19.8739 52.4546 19.1304C52.0252 18.3739 51.8105 17.487 51.8105 16.4696C51.8105 15.4522 52.0252 14.5717 52.4546 13.8283C52.884 13.0717 53.4946 12.4913 54.2864 12.087C55.0781 11.6826 55.9974 11.4804 57.0441 11.4804C58.0908 11.4804 59.01 11.6826 59.8018 12.087C60.5935 12.4913 61.2041 13.0717 61.6336 13.8283C62.063 14.5717 62.2777 15.4522 62.2777 16.4696C62.2777 17.487 62.063 18.3739 61.6336 19.1304C61.2041 19.8739 60.5935 20.4543 59.8018 20.8717C59.01 21.2761 58.0908 21.4783 57.0441 21.4783ZM57.0441 19.2283C58.5202 19.2283 59.2583 18.3087 59.2583 16.4696C59.2583 15.5435 59.0637 14.8522 58.6746 14.3957C58.2988 13.9391 57.7553 13.7109 57.0441 13.7109C55.5679 13.7109 54.8299 14.6304 54.8299 16.4696C54.8299 18.3087 55.5679 19.2283 57.0441 19.2283Z" fill="#101828"/>
<path d="M72.2999 11.5196C72.7561 11.5196 73.1185 11.65 73.3868 11.9109C73.6687 12.1587 73.8096 12.4913 73.8096 12.9087V20.2848C73.8096 21.837 73.3466 23.0109 72.4206 23.8065C71.4947 24.6022 70.1393 25 68.3545 25C66.8515 25 65.617 24.7391 64.6507 24.2174C64.4092 24.087 64.2213 23.9239 64.0871 23.7283C63.9529 23.5457 63.8858 23.337 63.8858 23.1022C63.8858 22.7761 63.9664 22.5087 64.1274 22.3C64.2884 22.0913 64.5031 21.987 64.7715 21.987C64.9191 21.987 65.0936 22.013 65.2949 22.0652C65.4962 22.1304 65.7042 22.2022 65.9189 22.2804C66.3483 22.437 66.7442 22.5609 67.1065 22.6522C67.4688 22.7435 67.858 22.7891 68.274 22.7891C69.1329 22.7891 69.7703 22.6 70.1863 22.2217C70.6023 21.8435 70.8103 21.2696 70.8103 20.5V19.4435C70.5285 19.9391 70.1058 20.3304 69.5422 20.6174C68.9785 20.9043 68.3478 21.0478 67.65 21.0478C66.7912 21.0478 66.0262 20.8522 65.3553 20.4609C64.6977 20.0696 64.1811 19.5152 63.8053 18.7978C63.4296 18.0674 63.2417 17.2261 63.2417 16.2739C63.2417 15.3217 63.4296 14.487 63.8053 13.7696C64.1811 13.0391 64.6977 12.4783 65.3553 12.087C66.0262 11.6826 66.7912 11.4804 67.65 11.4804C68.3344 11.4804 68.9517 11.6239 69.5019 11.9109C70.0655 12.1848 70.4949 12.5696 70.7902 13.0652V12.8696C70.7902 12.4522 70.9244 12.1261 71.1928 11.8913C71.4746 11.6435 71.8436 11.5196 72.2999 11.5196ZM68.5357 18.7978C69.2469 18.7978 69.7971 18.5761 70.1863 18.1326C70.5889 17.6891 70.7902 17.0696 70.7902 16.2739C70.7902 15.4783 70.5889 14.8587 70.1863 14.4152C69.7971 13.9587 69.2469 13.7304 68.5357 13.7304C67.8245 13.7304 67.2676 13.9587 66.865 14.4152C66.4624 14.8587 66.2611 15.4783 66.2611 16.2739C66.2611 17.0696 66.4624 17.6891 66.865 18.1326C67.2676 18.5761 67.8245 18.7978 68.5357 18.7978Z" fill="#101828"/>
<path d="M83.7371 11.5196C84.2067 11.5196 84.5758 11.6435 84.8442 11.8913C85.126 12.1391 85.2669 12.4783 85.2669 12.9087V20.0891C85.2669 20.4935 85.1193 20.8196 84.8241 21.0674C84.5422 21.3152 84.1732 21.4391 83.7169 21.4391C83.2875 21.4391 82.9453 21.3217 82.6903 21.087C82.4354 20.8522 82.3079 20.5391 82.3079 20.1478V19.9522C81.9992 20.4478 81.59 20.8261 81.08 21.087C80.5835 21.3478 80.0199 21.4783 79.3891 21.4783C78.1411 21.4783 77.2085 21.1457 76.5912 20.4804C75.9873 19.8022 75.6854 18.7848 75.6854 17.4283V12.9087C75.6854 12.4783 75.8195 12.1391 76.0879 11.8913C76.3698 11.6435 76.7455 11.5196 77.2152 11.5196C77.6849 11.5196 78.0539 11.6435 78.3223 11.8913C78.5907 12.1391 78.7249 12.4783 78.7249 12.9087V17.487C78.7249 18.0609 78.8457 18.4848 79.0872 18.7587C79.3422 19.0326 79.7246 19.1696 80.2346 19.1696C80.825 19.1696 81.3014 18.9739 81.6637 18.5826C82.0395 18.1913 82.2274 17.6761 82.2274 17.037V12.9087C82.2274 12.4783 82.3616 12.1391 82.63 11.8913C82.8983 11.6435 83.2674 11.5196 83.7371 11.5196Z" fill="#101828"/>
<path d="M88.7265 21.4391C88.2836 21.4391 87.9146 21.3217 87.6193 21.087C87.3375 20.8522 87.1966 20.5065 87.1966 20.05V12.9087C87.1966 12.4522 87.3442 12.1065 87.6395 11.8717C87.9347 11.637 88.297 11.5196 88.7265 11.5196C89.1559 11.5196 89.5115 11.637 89.7933 11.8717C90.0885 12.1065 90.2361 12.4522 90.2361 12.9087V20.05C90.2361 20.5065 90.0885 20.8522 89.7933 21.087C89.5115 21.3217 89.1559 21.4391 88.7265 21.4391ZM88.7265 9.95435C88.1897 9.95435 87.767 9.82391 87.4583 9.56304C87.1497 9.28913 86.9953 8.92391 86.9953 8.46739C86.9953 8.01087 87.1497 7.65217 87.4583 7.39131C87.767 7.13043 88.1897 7 88.7265 7C89.2498 7 89.6658 7.13696 89.9745 7.41087C90.2965 7.67174 90.4576 8.02391 90.4576 8.46739C90.4576 8.92391 90.3033 9.28913 89.9946 9.56304C89.686 9.82391 89.2632 9.95435 88.7265 9.95435Z" fill="#101828"/>
<path d="M100.595 7.43043C101.064 7.43043 101.44 7.55435 101.722 7.80217C102.017 8.05 102.165 8.37609 102.165 8.78044V20.05C102.165 20.4674 102.024 20.8065 101.742 21.0674C101.474 21.3152 101.111 21.4391 100.655 21.4391C100.199 21.4391 99.8298 21.3152 99.548 21.0674C99.2796 20.8065 99.1454 20.4674 99.1454 20.05V19.8935C98.8502 20.3891 98.4275 20.7804 97.8773 21.0674C97.3405 21.3413 96.7299 21.4783 96.0455 21.4783C95.2001 21.4783 94.4419 21.2696 93.7709 20.8522C93.1133 20.4217 92.5967 19.8283 92.2209 19.0717C91.8586 18.3022 91.6774 17.4217 91.6774 16.4304C91.6774 15.4391 91.8586 14.5717 92.2209 13.8283C92.5967 13.0717 93.1133 12.4913 93.7709 12.087C94.4284 11.6826 95.1866 11.4804 96.0455 11.4804C96.7165 11.4804 97.3203 11.6174 97.8571 11.8913C98.4073 12.1652 98.83 12.55 99.1253 13.0457V8.72174C99.1253 8.33043 99.2595 8.01739 99.5279 7.78261C99.7962 7.54783 100.152 7.43043 100.595 7.43043ZM96.9312 19.2283C97.6424 19.2283 98.1859 18.9935 98.5617 18.5239C98.9508 18.0413 99.1454 17.3565 99.1454 16.4696C99.1454 15.5826 98.9508 14.9043 98.5617 14.4348C98.1859 13.9652 97.6424 13.7304 96.9312 13.7304C96.2199 13.7304 95.6697 13.9652 95.2806 14.4348C94.8914 14.8913 94.6968 15.5565 94.6968 16.4304C94.6968 17.3174 94.8914 18.0087 95.2806 18.5043C95.6697 18.987 96.2199 19.2283 96.9312 19.2283Z" fill="#101828"/>
<path d="M112.034 18.4652C112.302 18.4652 112.517 18.5696 112.678 18.7783C112.852 18.987 112.94 19.2543 112.94 19.5804C112.94 19.8022 112.873 20.0109 112.738 20.2065C112.604 20.3891 112.416 20.5457 112.175 20.6761C111.718 20.9109 111.188 21.1065 110.584 21.263C109.981 21.4065 109.424 21.4783 108.914 21.4783C107.84 21.4783 106.901 21.2761 106.096 20.8717C105.304 20.4674 104.693 19.8935 104.264 19.15C103.834 18.3935 103.62 17.5065 103.62 16.4891C103.62 15.5109 103.828 14.6435 104.244 13.887C104.66 13.1304 105.237 12.5435 105.975 12.1261C106.713 11.6957 107.552 11.4804 108.491 11.4804C109.39 11.4804 110.175 11.6761 110.846 12.0674C111.531 12.4457 112.061 12.9935 112.436 13.7109C112.812 14.4152 113 15.2435 113 16.1957C113 16.4826 112.926 16.7043 112.779 16.8609C112.644 17.0043 112.45 17.0761 112.195 17.0761H106.559C106.653 17.8457 106.894 18.4065 107.283 18.7587C107.672 19.0978 108.229 19.2674 108.954 19.2674C109.343 19.2674 109.692 19.2217 110.001 19.1304C110.309 19.0391 110.652 18.9152 111.027 18.7587C111.215 18.6804 111.396 18.6152 111.571 18.563C111.745 18.4978 111.9 18.4652 112.034 18.4652ZM108.572 13.5152C107.995 13.5152 107.532 13.6978 107.183 14.063C106.834 14.4152 106.626 14.9304 106.559 15.6087H110.444C110.403 14.9174 110.222 14.3957 109.9 14.0435C109.591 13.6913 109.149 13.5152 108.572 13.5152Z" fill="#101828"/>
<path fill-rule="evenodd" clip-rule="evenodd" d="M19.0707 6.05348C20.208 5.92182 21.3609 6.03396 22.45 6.38221C26.5923 7.70029 28.9231 12.0515 27.6539 16.1318C27.1168 19.2963 19.3056 25.4272 16.4737 26.5119C16.3452 26.5584 16.2082 26.5781 16.0716 26.5695C15.9349 26.5608 15.8016 26.5242 15.6802 26.4618C-4.77747 17.0602 5.83381 2.23 15.8613 7.14493C16.8385 6.55749 17.9333 6.18514 19.0707 6.05348ZM9.91263 8.40987C2.3684 11.9202 6.95999 19.1118 12.0092 22.0596C12.7583 22.5732 13.4458 23.0004 14.0381 23.3474C11.9817 18.0709 10.5758 12.2589 14.1663 8.49948C12.8072 7.95898 11.2939 7.9271 9.91263 8.40987ZM14.305 12.0296C18.6985 1.51417 36.765 13.4019 16.5871 24.2008C15.2013 21.1364 13.1852 16.0787 14.305 12.0296ZM18.1063 17.0654C22.9341 19.6089 26.3497 12.139 21.1585 10.2979C16.8879 8.96732 14.2383 14.8377 18.1063 17.0654ZM18.2917 13.2977C17.5766 15.4983 20.9795 16.5799 21.7084 14.3845H21.7052C22.4298 12.1849 19.0068 11.0971 18.2917 13.2977Z" fill="url(#paint0_linear_1019_33137)"/>
<defs>
<linearGradient id="paint0_linear_1019_33137" x1="2.5" y1="26.5" x2="31.5" y2="3.5" gradientUnits="userSpaceOnUse">
<stop stop-color="#CD0D59"/>
<stop offset="1" stop-color="#C00C53"/>
</linearGradient>
</defs>
</svg>
