<svg width="855" height="855" viewBox="0 0 855 855" fill="none" xmlns="http://www.w3.org/2000/svg">
<mask id="mask0_4933_421787" style="mask-type:alpha" maskUnits="userSpaceOnUse" x="-4" y="-4" width="918" height="918">
<path d="M1.31903 182.741C-1.0717 171.957 5.73229 161.277 16.5162 158.886L727.26 1.31801C738.043 -1.07271 748.724 5.73127 751.114 16.5151L908.682 727.259C911.073 738.042 904.269 748.723 893.485 751.113L182.742 908.681C171.958 911.072 161.278 904.268 158.887 893.484L1.31903 182.741Z" fill="url(#paint0_radial_4933_421787)"/>
</mask>
<g mask="url(#mask0_4933_421787)">
<path d="M402.565 437.945C400.234 427.431 406.868 417.018 417.382 414.687L472.055 402.566C482.569 400.235 492.982 406.869 495.313 417.383L507.434 472.056C509.765 482.57 503.131 492.983 492.617 495.314L437.944 507.435C427.43 509.766 417.017 503.132 414.686 492.618L402.565 437.945Z" stroke="#EAECF0"/>
<path d="M345.315 401.471C342.984 390.957 349.618 380.544 360.132 378.213L508.529 345.314C519.043 342.983 529.457 349.617 531.788 360.131L564.686 508.528C567.017 519.043 560.383 529.456 549.869 531.787L401.472 564.686C390.958 567.017 380.545 560.383 378.214 549.868L345.315 401.471Z" stroke="#EAECF0"/>
<path d="M288.063 364.999C285.732 354.484 292.366 344.071 302.88 341.74L545.002 288.063C555.516 285.732 565.929 292.366 568.26 302.881L621.937 545.002C624.268 555.516 617.634 565.929 607.12 568.26L364.998 621.937C354.484 624.268 344.071 617.634 341.74 607.12L288.063 364.999Z" stroke="#EAECF0"/>
<path d="M230.811 328.525C228.48 318.011 235.114 307.598 245.628 305.267L581.474 230.812C591.988 228.481 602.401 235.114 604.732 245.629L679.188 581.475C681.519 591.989 674.885 602.402 664.37 604.733L328.525 679.188C318.01 681.519 307.597 674.885 305.266 664.371L230.811 328.525Z" stroke="#EAECF0"/>
<path d="M173.561 292.052C171.23 281.538 177.864 271.125 188.378 268.794L617.949 173.561C628.463 171.23 638.876 177.864 641.207 188.378L736.44 617.948C738.771 628.462 732.137 638.876 721.623 641.206L292.053 736.44C281.539 738.771 271.125 732.137 268.795 721.623L173.561 292.052Z" stroke="#EAECF0"/>
<path d="M116.309 255.579C113.978 245.065 120.612 234.651 131.126 232.32L654.421 116.309C664.935 113.978 675.348 120.612 677.679 131.126L793.691 654.421C796.022 664.935 789.388 675.348 778.874 677.679L255.579 793.691C245.065 796.022 234.652 789.388 232.321 778.873L116.309 255.579Z" stroke="#EAECF0"/>
<path d="M59.0572 219.106C56.7262 208.592 63.3601 198.179 73.8744 195.848L690.893 59.058C701.408 56.727 711.821 63.3609 714.152 73.8752L850.942 690.894C853.273 701.409 846.639 711.822 836.124 714.153L219.105 850.942C208.591 853.273 198.178 846.64 195.847 836.125L59.0572 219.106Z" stroke="#EAECF0"/>
<path d="M1.80718 182.633C-0.52378 172.118 6.1101 161.705 16.6244 159.374L727.368 1.80616C737.882 -0.524797 748.295 6.10908 750.626 16.6234L908.194 727.367C910.525 737.881 903.891 748.294 893.377 750.625L182.634 908.193C172.119 910.524 161.706 903.89 159.375 893.376L1.80718 182.633Z" stroke="#EAECF0"/>
</g>
<defs>
<radialGradient id="paint0_radial_4933_421787" cx="0" cy="0" r="1" gradientUnits="userSpaceOnUse" gradientTransform="translate(455.001 455) rotate(77.5) scale(384 384)">
<stop/>
<stop offset="1" stop-opacity="0"/>
</radialGradient>
</defs>
</svg>
