<svg width="336" height="336" viewBox="0 0 336 336" fill="none" xmlns="http://www.w3.org/2000/svg">
<mask id="mask0_4947_375930" style="mask-type:alpha" maskUnits="userSpaceOnUse" x="0" y="0" width="336" height="336">
<rect width="336" height="336" fill="url(#paint0_radial_4947_375930)"/>
</mask>
<g mask="url(#mask0_4947_375930)">
<path d="M113.833 143.135C112.459 136.934 116.371 130.793 122.572 129.418L192.865 113.835C199.066 112.46 205.207 116.372 206.582 122.573L222.165 192.866C223.54 199.067 219.628 205.208 213.427 206.583L143.134 222.166C136.933 223.541 130.792 219.629 129.417 213.428L113.833 143.135Z" stroke="#EAECF0"/>
<path d="M85.2085 124.898C83.8338 118.697 87.7461 112.556 93.9468 111.181L211.102 85.2084C217.303 83.8337 223.444 87.746 224.819 93.9467L250.792 211.102C252.166 217.303 248.254 223.444 242.053 224.819L124.898 250.791C118.697 252.166 112.556 248.254 111.181 242.053L85.2085 124.898Z" stroke="#EAECF0"/>
<path d="M56.5835 106.661C55.2088 100.46 59.1211 94.3188 65.3218 92.9441L229.34 56.5822C235.54 55.2076 241.681 59.1199 243.056 65.3206L279.418 229.338C280.793 235.539 276.88 241.68 270.68 243.055L106.662 279.417C100.461 280.791 94.32 276.879 92.9453 270.678L56.5835 106.661Z" stroke="#EAECF0"/>
<path d="M27.9594 88.4235C26.5848 82.2228 30.4971 76.0817 36.6978 74.707L247.578 27.9561C253.778 26.5814 259.92 30.4937 261.294 36.6944L308.045 247.574C309.42 253.775 305.508 259.916 299.307 261.291L88.4269 308.042C82.2261 309.416 76.0851 305.504 74.7104 299.303L27.9594 88.4235Z" stroke="#EAECF0"/>
<path d="M-0.665552 70.1864C-2.04022 63.9857 1.87207 57.8446 8.0728 56.47L265.815 -0.670085C272.016 -2.04475 278.157 1.86754 279.531 8.06826L336.671 265.81C338.046 272.011 334.134 278.152 327.933 279.527L70.191 336.667C63.9902 338.042 57.8492 334.129 56.4745 327.929L-0.665552 70.1864Z" stroke="#EAECF0"/>
<path d="M-29.2906 51.9496C-30.6652 45.7489 -26.7529 39.6078 -20.5522 38.2332L284.052 -29.296C290.253 -30.6707 296.394 -26.7584 297.769 -20.5577L365.298 284.047C366.672 290.247 362.76 296.388 356.559 297.763L51.9551 365.292C45.7543 366.667 39.6133 362.755 38.2386 356.554L-29.2906 51.9496Z" stroke="#EAECF0"/>
</g>
<defs>
<radialGradient id="paint0_radial_4947_375930" cx="0" cy="0" r="1" gradientUnits="userSpaceOnUse" gradientTransform="translate(168 168) rotate(90) scale(168 168)">
<stop/>
<stop offset="1" stop-opacity="0"/>
</radialGradient>
</defs>
</svg>
