<svg width="480" height="480" viewBox="0 0 480 480" fill="none" xmlns="http://www.w3.org/2000/svg">
<mask id="mask0_4933_421799" style="mask-type:alpha" maskUnits="userSpaceOnUse" x="0" y="0" width="480" height="480">
<path d="M0 12C0 5.37257 5.37258 0 12 0H468C474.627 0 480 5.37258 480 12V468C480 474.627 474.627 480 468 480H12C5.37257 480 0 474.627 0 468V12Z" fill="url(#paint0_radial_4933_421799)"/>
</mask>
<g mask="url(#mask0_4933_421799)">
<path d="M185.833 215.135C184.459 208.934 188.371 202.793 194.572 201.418L264.865 185.835C271.066 184.46 277.207 188.372 278.582 194.573L294.165 264.866C295.54 271.067 291.628 277.208 285.427 278.583L215.134 294.166C208.933 295.541 202.792 291.629 201.417 285.428L185.833 215.135Z" stroke="#EAECF0"/>
<path d="M147.667 190.819C146.293 184.619 150.205 178.477 156.406 177.103L289.182 147.667C295.383 146.292 301.524 150.205 302.899 156.405L332.334 289.182C333.709 295.382 329.797 301.523 323.596 302.898L190.82 332.334C184.619 333.709 178.478 329.796 177.103 323.596L147.667 190.819Z" stroke="#EAECF0"/>
<path d="M109.499 166.504C108.125 160.303 112.037 154.162 118.238 152.787L313.497 109.499C319.698 108.125 325.839 112.037 327.213 118.238L370.501 313.497C371.876 319.698 367.964 325.839 361.763 327.213L166.504 370.501C160.303 371.876 154.162 367.964 152.787 361.763L109.499 166.504Z" stroke="#EAECF0"/>
<path d="M71.3315 142.188C69.9569 135.988 73.8691 129.847 80.0699 128.472L337.812 71.3319C344.013 69.9572 350.154 73.8695 351.528 80.0702L408.669 337.812C410.043 344.013 406.131 350.154 399.93 351.529L142.188 408.669C135.987 410.044 129.846 406.131 128.472 399.931L71.3315 142.188Z" stroke="#EAECF0"/>
<path d="M33.1636 117.873C31.7889 111.672 35.7012 105.531 41.9019 104.156L362.127 33.1643C368.328 31.7896 374.469 35.7019 375.843 41.9027L446.836 362.128C448.21 368.328 444.298 374.47 438.097 375.844L117.872 446.836C111.671 448.211 105.53 444.299 104.156 438.098L33.1636 117.873Z" stroke="#EAECF0"/>
<path d="M-5.00442 93.5575C-6.37909 87.3568 -2.4668 81.2157 3.73393 79.8411L386.442 -5.00326C392.643 -6.37793 398.784 -2.46564 400.158 3.73509L485.003 386.443C486.377 392.644 482.465 398.785 476.264 400.16L93.5564 485.004C87.3556 486.379 81.2146 482.466 79.8399 476.266L-5.00442 93.5575Z" stroke="#EAECF0"/>
<path d="M-43.1704 69.2421C-44.5451 63.0414 -40.6328 56.9003 -34.4321 55.5256L410.759 -43.1708C416.96 -44.5455 423.101 -40.6332 424.475 -34.4325L523.172 410.758C524.546 416.959 520.634 423.1 514.433 424.475L69.2425 523.171C63.0418 524.546 56.9007 520.634 55.526 514.433L-43.1704 69.2421Z" stroke="#EAECF0"/>
</g>
<defs>
<radialGradient id="paint0_radial_4933_421799" cx="0" cy="0" r="1" gradientUnits="userSpaceOnUse" gradientTransform="translate(240 240) rotate(90) scale(240 240)">
<stop/>
<stop offset="1" stop-opacity="0"/>
</radialGradient>
</defs>
</svg>
